<?xml version="1.0" encoding="UTF-8" standalone="no"?>
<svg width="260px" height="77px" viewBox="0 0 260 77" version="1.1" xmlns="http://www.w3.org/2000/svg" xmlns:xlink="http://www.w3.org/1999/xlink" xmlns:sketch="http://www.bohemiancoding.com/sketch/ns">
    <!-- Generator: Sketch 3.3.2 (12043) - http://www.bohemiancoding.com/sketch -->
    <title>logo-header-mojo</title>
    <desc>Created with Sketch.</desc>
    <defs></defs>
    <g id="New-Header" stroke="none" stroke-width="1" fill="none" fill-rule="evenodd" sketch:type="MSPage">
        <g id="Mobile-grijs" sketch:type="MSArtboardGroup">
            <g id="logo-header-mojo" sketch:type="MSLayerGroup">
                <path d="M0,0 L260,0 L0,77 L0,0 Z" id="Rectangle-19" fill="#3E5AB7" sketch:type="MSShapeGroup"></path>
                <path d="M14.700398,14 L23.2547104,14 L26.4089783,26.0787309 L26.6203557,26.0787309 C26.773065,25.0722423 26.9240489,24.0050174 27.1975453,23.0288969 L29.7754863,14 L38.2383457,14 L42,37 L33.9616209,37 L32.839164,24.4015392 L32.6873174,24.4015392 C32.5363335,25.1642146 32.3844869,25.9572582 32.14205,26.6895654 L28.8350728,37 L23.9828839,37 L21.0097966,27.269164 C20.7664969,26.2930436 20.5542568,25.3776596 20.494726,24.4015392 L20.2212296,24.4015392 C20.1599733,25.3169232 20.1004425,26.2618078 20.0081267,27.1780595 L19.0375164,37 L11,37 L14.700398,14" id="Fill-1-Copy" fill="#FFFFFF" sketch:type="MSShapeGroup"></path>
                <path d="M56.9982266,14 C49.8611282,14 44,18.7505118 44,26.0614215 C44,33.5267622 49.8292067,38 56.9982266,38 C64.1699066,38 70,33.5267622 70,26.0614215 C70,18.7505118 64.1379851,14 56.9982266,14 M56.9982266,21.6496051 C59.7124343,21.6496051 61.3945161,23.7168763 61.3945161,26.1842644 C61.3945161,28.8376718 59.5865221,30.6575022 56.9982266,30.6575022 C54.4125912,30.6575022 52.6045972,28.8376718 52.6045972,26.1842644 C52.6045972,23.7168763 54.2875657,21.6496051 56.9982266,21.6496051" id="Fill-2-Copy" fill="#FFFFFF" sketch:type="MSShapeGroup"></path>
                <path d="M85,14 L85,29.2527664 C85,33.757111 81.7016819,37 77.0020655,37 C74.5748008,37 71.897905,35.9785369 70,34.5377274 L72.893774,27.541218 C73.3301859,28.6224657 73.8276778,29.9129595 75.1661257,29.9129595 C76.5355562,29.9129595 76.6594866,28.4123654 76.6594866,27.451541 L76.6594866,14 L85,14" id="Fill-3-Copy" fill="#FFFFFF" sketch:type="MSShapeGroup"></path>
                <path d="M100.999113,14 C93.8611282,14 88,18.7505118 88,26.0614215 C88,33.5267622 93.8292067,38 100.999113,38 C108.169907,38 114,33.5267622 114,26.0614215 C114,18.7505118 108.139759,14 100.999113,14 M100.999113,21.6496051 C103.712434,21.6496051 105.395403,23.7168763 105.395403,26.1842644 C105.395403,28.8376718 103.588295,30.6575022 100.999113,30.6575022 C98.4117045,30.6575022 96.6037105,28.8376718 96.6037105,26.1842644 C96.6037105,23.7168763 98.2884524,21.6496051 100.999113,21.6496051" id="Fill-4-Copy" fill="#FFFFFF" sketch:type="MSShapeGroup"></path>
            </g>
        </g>
    </g>
</svg>