<?xml version="1.0" standalone="no"?>
<!DOCTYPE svg PUBLIC "-//W3C//DTD SVG 20010904//EN"
 "http://www.w3.org/TR/2001/REC-SVG-20010904/DTD/svg10.dtd">
<svg version="1.0" xmlns="http://www.w3.org/2000/svg"
 width="178.000000pt" height="178.000000pt" viewBox="0 0 178.000000 178.000000"
 preserveAspectRatio="xMidYMid meet">
<metadata>
Created by potrace 1.11, written by Peter Selinger 2001-2013
</metadata>
<g transform="translate(0.000000,178.000000) scale(0.100000,-0.100000)"
fill="#000000" stroke="none">
<path d="M10 1470 l0 -210 45 0 45 0 0 -370 0 -370 -45 0 -45 0 0 -210 0 -210
340 0 340 0 0 213 0 214 -45 -2 -45 -1 0 88 c0 48 2 88 4 88 2 0 48 -71 102
-157 53 -87 117 -189 141 -226 l44 -69 67 107 c37 58 74 117 82 130 8 13 40
64 69 114 30 50 56 89 57 88 2 -1 5 -39 7 -84 l4 -82 -46 -3 -46 -3 0 -207 0
-208 342 0 343 0 0 214 0 213 -45 -2 c-42 -2 -45 0 -46 24 0 30 0 642 1 684 0
25 3 27 45 27 l45 0 0 210 0 210 -274 0 -274 0 -40 -67 c-21 -38 -76 -131
-122 -208 -46 -77 -102 -173 -126 -214 l-42 -74 -21 34 c-12 19 -88 145 -169
282 l-147 247 -272 0 -273 0 0 -210z m660 -132 c91 -150 178 -292 193 -316
l28 -44 91 148 c49 82 136 224 191 317 l101 167 213 0 213 0 0 -140 0 -140
-45 0 c-40 0 -45 -3 -46 -22 0 -13 -1 -210 -1 -438 l0 -415 46 -3 46 -3 0
-140 0 -139 -269 0 c-206 0 -270 3 -273 13 -2 6 -4 68 -4 137 l1 125 48 3 47
3 0 246 c0 136 -3 243 -7 239 -9 -8 -239 -382 -304 -494 -23 -39 -45 -72 -48
-72 -4 0 -18 19 -32 43 -14 23 -90 148 -168 277 -79 129 -147 239 -152 245 -5
5 -9 -89 -9 -238 l0 -247 45 0 45 0 0 -140 0 -140 -270 0 -270 0 0 140 0 140
45 0 45 0 0 440 0 440 -45 0 -45 0 0 140 0 140 213 0 212 -1 165 -271z"/>
<path d="M136 1551 c-2 -3 -3 -42 -2 -86 l1 -79 40 -2 c22 -1 42 -2 45 -3 3 0
5 -222 5 -491 l0 -490 -30 -1 c-16 -1 -36 -1 -42 0 -16 2 -15 5 -18 -95 l-3
-81 216 1 217 1 0 85 0 85 -30 2 c-16 0 -37 2 -46 2 -13 1 -15 44 -15 371 0
204 3 367 7 363 4 -5 94 -150 199 -323 106 -173 197 -321 202 -327 10 -13 25
11 340 532 l78 130 0 -372 0 -373 -37 -1 c-21 -1 -41 -1 -45 0 -5 0 -8 -39 -8
-87 l0 -89 209 1 c115 1 213 5 217 9 5 5 9 44 9 88 0 65 -2 79 -15 78 -8 -1
-29 -1 -46 0 l-31 1 1 492 1 493 45 0 45 0 0 85 0 84 -155 2 c-85 1 -162 0
-171 -2 -9 -3 -108 -155 -220 -339 -112 -184 -207 -334 -211 -333 -4 2 -99
154 -212 338 l-204 335 -167 1 c-91 0 -167 -2 -169 -5z"/>
</g>
</svg>
